<svg xmlns="http://www.w3.org/2000/svg" viewBox="0 0 128 128"><path fill="#1572B6" d="M18.814 114.123L8.76 8.352h110.48l-10.064 105.753-45.243 12.615-45.119-12.615z"/><path fill="#33A9DC" d="M64 117.992l36.551-10.199 8.592-96.276H64v106.475z"/><path fill="#fff" d="M64 51.056h18.126l1.282-14.376H64V22.369h34.526l-.334 3.735-3.416 38.297H64v-14.16z"/><path fill="#EBEBEB" d="M64.013 88.583l-.018.005-15.262-4.118-.975-10.916H33.528l1.918 21.488 28.549 7.925.018-.005v-14.379z"/><path fill="#fff" d="M64.001 88.583v14.379l28.543-7.924 2.114-23.672H82.682l-1.296 14.519-17.385 4.698z"/><path fill="#EBEBEB" d="M66.771 51.056l-4.002 44.806H64v14.378l28.551-7.924.354-3.966 2.422-27.121-1.417-15.888v-.001h-1.956H66.771z"/></svg>
