<svg xmlns="http://www.w3.org/2000/svg" viewBox="0 0 128 128"><path fill="#333" d="M64 5.03c-35.33 0-64 28.65-64 64 0 28.28 18.34 52.27 43.78 60.74 3.2.59 4.37-1.39 4.37-3.09 0-1.52-.06-5.56-.09-10.92-17.8 3.87-21.56-8.58-21.56-8.58-2.91-7.39-7.11-9.36-7.11-9.36-5.81-3.97.44-3.89.44-3.89 6.42.45 9.8 6.59 9.8 6.59 5.71 9.78 14.98 6.96 18.63 5.32.58-4.14 2.23-6.96 4.06-8.56-14.21-1.62-29.15-7.11-29.15-31.64 0-6.99 2.5-12.71 6.59-17.19-.66-1.62-2.86-8.13.63-16.95 0 0 5.37-1.72 17.6 6.56 5.1-1.42 10.57-2.13 16-2.15 5.44.02 10.9.73 16.02 2.15 12.21-8.28 17.56-6.56 17.56-6.56 3.5 8.82 1.3 15.33.64 16.95 4.1 4.48 6.58 10.2 6.58 17.19 0 24.62-14.98 30-29.23 31.58 2.3 1.98 4.35 5.89 4.35 11.87 0 8.57-.08 15.48-.08 17.59 0 1.72 1.15 3.73 4.4 3.1 25.42-8.49 43.73-32.47 43.73-60.74 0-35.35-28.65-64-64-64z"/></svg>
