<svg xmlns="http://www.w3.org/2000/svg" viewBox="0 0 128 128"><path fill="#E44D26" d="M19.569 26l8.087 89.919 36.289 9.682 36.39-9.682L108.431 26H19.569zM91.61 47.898l-.849 9.52-.129 1.419H58.781l1.459 16.087h29.555l-.556 6.607-7.048 7.939-11.616 3.102v.003l-.007.001-11.617-3.102-5.929-6.618h-.001l-3.246-3.633h-16.19l.001.007 3.085 10.798 13.319 12.354.018.01 24.063 6.668.003-.001 24.062-6.668 4.954-8.416 4.746-10.579 1.391-15.439H87.201l-.002-.001-.458-.002-.002-.001H87.2l-1.189-13.326H68.268h-1.621H52.211l-4.115-16.176h55.921l-1.137 5.609zM27.399 23.943h73.23l-.889 4.615H28.273l1.126 5.969h71.915l-1.226 6.142H33.231l1.346 6.932h61.451l-8.941 35.279-30.033 9.729-30.024-9.729-4.436-16.597h13.509l2.185 8.176 15.321 5.417.001-.001 15.322-5.417 3.566-8.135H44.631L40.68 47.898H91.61l3.479-19.453-67.69-.502v-.008l-.953-4.992z"/></svg>
