<svg xmlns="http://www.w3.org/2000/svg" viewBox="0 0 128 128"><path fill="#FFF" d="M42.7 3.8l7.5 27.4-9.5 3.1-7.5-27.4zM55.8 9.5l3.1 28.3H64V9.2h-8.2zM68.7 9.5l-3.1 28.3h5.1l9.5-27.4-11.5-.9zM85.3 3.8L77.8 31.2l9.5 3.1 7.5-27.4zM21.9 43.6L47.8 50l-2.9 9.6-25.9-6.4zM27 56.2L52.4 54l1.1 10-25.4 2.2zM30.3 68.6L54.8 60l3.4 9.4-24.5 8.6zM36.1 80.1L56.7 65l5.8 8.1-20.6 15.1zM44.4 89.9L60.5 70l7.8 6-16.1 19.9zM54.8 97.7L66 74.7l9 2.5-11.2 22.9zM73.1 60.2l3.4-9.4 24.5 8.6-3.4 9.4zM67.8 74.7l18.6-24.4 7.8 6-18.6 24.4zM62.3 88.1l24.7-17.4 5.8 8.1-24.7 17.4zM101.8 68.6l-24.5-8.6 3.4-9.4 24.5 8.6zM106.6 56.2l-25.4-2.2 1.1-10 25.4 2.2zM108.7 43.6l-25.9 6.4-2.9-9.6 25.9-6.4z"/></svg>
