<svg xmlns="http://www.w3.org/2000/svg" viewBox="0 0 128 128"><path fill="#6DB33F" d="M116.1 31.1c-.9-1.3-1.9-2.6-3-3.9-1.1-1.2-2.2-2.4-3.4-3.5-6.4-6.1-14.2-10.8-22.8-13.5C76.9 7.4 67.2 6 57.7 7c-9.4 1-18.4 4-26.3 9-3.9 2.5-7.5 5.4-10.7 8.8-1.5 1.6-3 3.3-4.3 5.1-.7.9-1.3 1.8-2 2.7-1.4 2-2.7 4.1-3.9 6.3-5.9 11-8.9 23.6-8.1 36.2.1 1.5.2 3 .4 4.5.4 3.1 1 6.2 1.8 9.3.4 1.6.9 3.1 1.4 4.7.2.7.5 1.3.7 2 .3.8.6 1.6.9 2.4.6 1.6 1.3 3.1 2 4.7 1.6 3.2 3.4 6.3 5.4 9.2.5.7 1 1.5 1.5 2.2.3.4.6.8.9 1.2l.5.6.3.4c2.5 3.1 5.3 5.9 8.3 8.5 6.3 5.3 13.7 9.2 21.6 11.5 8.1 2.3 16.8 3 25.2 1.8 8.5-1.2 16.6-4.3 23.6-9.2 6.9-4.8 12.6-11.1 16.8-18.3 4.3-7.3 6.7-15.5 7.3-23.8.7-8.5-.5-17.1-3.7-25.1-1.5-3.9-3.5-7.6-5.8-11.1zm-8.1 5.7c.8 1.1 1.6 2.3 2.4 3.5 2 3.2 3.7 6.5 5.2 9.9 3 6.9 4.7 14.3 5 21.9.3 7.5-.7 15-2.9 22.1-2.2 7.1-5.8 13.7-10.5 19.4-4.7 5.7-10.5 10.3-17 13.5-6.5 3.2-13.7 4.9-21 5-3.6.1-7.2-.3-10.8-1-3.5-.7-6.9-1.8-10.2-3.2-3.2-1.4-6.2-3.1-9.1-5.1-2.8-2-5.4-4.3-7.7-6.8-1.1-1.2-2.1-2.5-3.1-3.8l-.6-.8c-.9-1.3-1.8-2.6-2.6-4-1.6-2.8-3-5.7-4.2-8.7-2.4-5.9-3.8-12.2-4.1-18.5-.2-6.4.5-12.8 2.2-18.9 1.7-6.1 4.3-11.9 7.7-17.1.8-1.3 1.7-2.5 2.7-3.7 1-1.2 2-2.3 3.1-3.4 2.2-2.1 4.6-4 7.1-5.7 5.1-3.4 10.9-5.8 16.9-7 6-1.2 12.3-1.2 18.3-.1 6 1.2 11.7 3.5 16.7 6.8 2.5 1.7 4.9 3.6 7.1 5.8 1.1 1.1 2.1 2.2 3.1 3.4 1 1.2 2 2.4 2.9 3.7z"/><path fill="#6DB33F" d="M80.7 71.9c-.4 5.3-2.6 8.4-6.7 10.9-4.1 2.5-8.9 3.1-13.6 2.5-4.1-.5-7.8-2.1-10.5-5.5-2.5-3.1-3.6-6.8-3.5-10.8 0-3.4.8-6.6 2.8-9.4 2.3-3.2 5.5-5 9.3-5.7 4-.7 7.8.1 10.9 2.9 2.8 2.5 4.5 5.7 5 9.4.3 2-.4 4.1-.4 4.1-.1.2-.1.4-.1.7.6-.4 1.2-.7 1.9-1 2.6-1.4 5.1-2.9 7.1-5.1.5-.5.9-1.2 1.4-1.8.1-.1.2-.2.3-.3 1.1-1.5 2-3.2 2.7-5 .7-1.8 1.1-3.8 1.3-5.8.1-1-.2-1.8-1.1-2.3-.9-.5-1.8-.2-2.6.3-1.4.9-2.7 1.9-4 2.9-.7.5-1.3 1.1-2 1.6-3.3 2.6-7 4.6-10.9 6.1-3.5 1.4-7.2 2.2-10.9 2.4-3.3.2-6.6-.2-9.7-1.5-2.9-1.2-5.3-3.3-6.9-6-1.5-2.6-2.3-5.5-2.1-8.5.2-4.3 1.8-8.1 4.7-11.2 3-3.1 6.7-5 10.9-6 4.6-1.1 9.2-.6 13.1 1.9 1.5 1 2.8 2.2 3.8 3.7.2.3.4.5.6.7 0-.1.1-.2.1-.3.3-.4.6-.9.9-1.3 1.2-1.7 2.5-3.3 3.9-4.9.3-.4.7-.7 1-1.1.2-.2.3-.4.5-.6-.1-.1-.2-.1-.2-.2-2.5-3.1-5.7-5.3-9.4-6.9-3.7-1.6-7.7-2.4-11.7-2.4-1 0-2 .1-3 .2-1.5.2-3 .5-4.4.8-5.7 1.4-10.9 4-15.3 7.5-1.1.9-2.2 1.9-3.2 2.9-.5.5-1 1.1-1.5 1.6-4.1 4.8-7 10.3-8.7 16.4-1.7 6-2 12.2-1.1 18.3.6 3.8 1.6 7.6 3.1 11.1.7 1.7 1.5 3.3 2.4 4.9.5.8 1 1.6 1.5 2.4.3.5.7 1 1 1.5.1.1.1.2.2.3 1 1.4 2 2.7 3.1 4 2.3 2.6 4.9 4.9 7.6 7 2.8 2.1 5.7 3.8 8.8 5.2 6.3 2.8 13.2 4 20 3.5 6.8-.5 13.3-2.6 18.9-6.3 5.5-3.6 9.8-8.6 12.5-14.6 1.5-3.4 2.5-7 2.9-10.7.2-2.1.1-4.1-.2-6.1-.7-4.7-2.5-8.9-5.3-12.6-.7-.9-1.4-1.8-2.2-2.6-.3-.4-.7-.7-1.1-1.1-.1-.1-.2-.2-.4-.3-.2.2-.4.4-.5.6-1.1 1.5-2.1 3.1-3.1 4.7-.4.6-.7 1.2-1.1 1.8-.3.6-.7 1.1-1 1.7.1 0 .1.1.1.1z"/></svg>
